<?xml version="1.0" standalone="no"?>
<!DOCTYPE svg PUBLIC "-//W3C//DTD SVG 20010904//EN"
 "http://www.w3.org/TR/2001/REC-SVG-20010904/DTD/svg10.dtd">
<svg version="1.0" xmlns="http://www.w3.org/2000/svg"
 width="2816.000000pt" height="1536.000000pt" viewBox="0 0 2816.000000 1536.000000"
 preserveAspectRatio="xMidYMid meet">

<g transform="translate(0.000000,1536.000000) scale(0.100000,-0.100000)"
fill="#000000" stroke="none">
<path d="M9335 12893 c-132 -17 -236 -74 -365 -197 -114 -109 -1588 -1604
-2225 -2256 -100 -102 -399 -408 -665 -680 -267 -272 -570 -583 -675 -690
-104 -107 -311 -319 -460 -470 -263 -268 -473 -483 -760 -780 -490 -505 -764
-787 -794 -814 -46 -42 -141 -160 -177 -221 -64 -106 -87 -180 -92 -304 -7
-171 19 -258 113 -381 81 -105 187 -180 305 -215 72 -21 218 -21 290 1 155 46
311 156 510 361 74 76 216 221 315 323 100 102 448 459 775 795 327 335 766
783 975 995 209 212 461 468 560 570 188 193 606 619 735 749 206 209 734 746
875 891 88 91 266 273 395 405 905 924 954 976 997 1075 27 59 53 188 53 258
0 70 -29 193 -61 260 -56 115 -170 228 -289 286 -75 37 -223 54 -335 39z
m-2948 -3185 c29 -29 53 -55 53 -58 0 -3 -27 -6 -60 -8 l-60 -3 0 61 c0 33 3
60 7 60 4 0 31 -23 60 -52z m-157 -32 c0 -30 -13 -40 -41 -31 -21 7 -21 7 2
31 29 30 39 30 39 0z m-9 -207 c-2 -46 -5 -87 -8 -91 -2 -5 -40 -8 -84 -8
l-79 0 0 64 c0 102 8 114 77 118 105 6 98 12 94 -83z m267 16 c5 -117 6 -116
-91 -113 l-82 3 0 83 c0 63 4 85 15 92 8 6 47 9 85 8 l70 -3 3 -70z m162 -45
l61 -61 -68 3 -68 3 -1 58 c0 31 2 57 6 57 5 0 36 -27 70 -60z m-692 -37 c-2
-20 -9 -29 -25 -31 -28 -4 -29 6 -5 36 23 29 34 28 30 -5z m-8 -203 c0 -65 -3
-90 -12 -91 -7 0 -46 -3 -85 -5 l-73 -5 0 66 c0 40 6 78 15 95 15 29 18 30 85
30 l70 0 0 -90z m265 0 l0 -85 -87 -3 -88 -3 0 84 c0 46 3 87 7 91 4 4 43 5
88 4 l80 -3 0 -85z m260 0 l0 -85 -88 -3 -88 -3 6 78 c4 43 8 84 11 91 3 9 25
12 81 10 l78 -3 0 -85z m268 73 c3 -10 4 -29 2 -43 -2 -14 -4 -46 -4 -72 l-1
-48 -90 0 -90 0 0 83 c0 46 3 87 7 90 3 4 44 7 89 7 70 0 83 -3 87 -17z m207
-153 c-8 -5 -39 -10 -67 -10 l-53 0 0 77 0 78 68 -68 c54 -55 64 -69 52 -77z
m-1263 6 c-4 -9 -16 -16 -27 -16 -21 0 -20 8 3 38 13 17 32 -1 24 -22z m1173
-102 c0 -15 -22 -44 -31 -39 -11 7 7 45 21 45 6 0 10 -3 10 -6z m-1176 -12 c3
-5 2 -48 -1 -95 l-6 -87 -83 0 c-46 0 -85 3 -87 8 -2 4 -1 42 2 85 4 53 11 81
21 87 19 12 147 13 154 2z m257 -82 c-2 -50 -8 -88 -14 -93 -7 -4 -43 -6 -82
-5 l-70 3 -3 70 c-5 117 -5 116 91 113 l82 -3 -4 -85z m267 -2 c2 -66 0 -88
-10 -89 -7 -1 -48 -2 -90 -4 l-78 -3 0 95 0 94 88 -3 87 -3 3 -87z m262 2 l0
-90 -91 0 c-90 0 -91 0 -85 23 3 12 6 52 6 90 l0 67 85 0 85 0 0 -90z m263 16
c-1 -45 -6 -74 -16 -83 -20 -20 -77 -31 -123 -24 l-39 6 3 80 c2 44 6 83 9 88
2 4 41 6 86 5 l82 -3 -2 -69z m-1323 -86 c0 -20 -25 -38 -37 -26 -5 5 24 46
34 46 1 0 3 -9 3 -20z m265 -119 c3 -5 2 -48 -1 -95 l-7 -86 -83 0 c-45 0 -85
3 -87 8 -2 4 -2 44 1 89 l4 82 52 4 c103 7 115 7 121 -2z m258 2 c3 -5 2 -45
-1 -90 l-5 -83 -83 0 -84 0 0 83 c0 46 3 87 7 90 9 10 161 9 166 0z m267 -83
l0 -90 -90 0 -90 0 0 74 c0 108 -2 106 96 106 l84 0 0 -90z m264 82 c9 -15
-12 -155 -25 -163 -8 -5 -47 -9 -87 -9 l-74 0 6 53 c3 28 5 69 6 90 l0 37 84
0 c47 0 87 -3 90 -8z m116 -12 c-12 -23 -30 -27 -30 -7 0 17 10 27 27 27 11 0
11 -5 3 -20z m-1172 -77 l-3 -88 -89 -3 -89 -3 6 77 c4 42 12 83 18 90 8 10
35 14 86 14 l74 0 -3 -87z m-258 -57 c0 -18 -15 -36 -31 -36 -22 0 -24 11 -7
28 11 11 38 17 38 8z m-12 -208 l3 -88 -91 0 -90 0 0 59 c0 93 32 120 135 117
l40 -1 3 -87z m262 3 l0 -89 -81 -7 c-51 -5 -84 -4 -91 3 -14 14 -6 161 9 170
6 4 45 8 87 10 l76 3 0 -90z m268 29 c2 -30 1 -70 -3 -87 l-6 -33 -84 0 -85 0
0 84 c0 58 4 86 13 90 6 2 46 4 87 3 l75 -2 3 -55z m260 -27 l-3 -88 -87 -3
-88 -3 0 84 c0 46 3 87 7 90 3 4 44 7 90 7 l84 0 -3 -87z m260 12 c-3 -41 -11
-81 -18 -90 -9 -11 -32 -15 -86 -15 l-74 0 0 38 c0 20 3 61 6 90 l7 52 85 0
85 0 -5 -75z m132 67 c0 -13 -39 -46 -46 -39 -12 12 8 47 27 47 10 0 19 -4 19
-8z m-1455 -172 c-5 -8 -11 -8 -17 -2 -6 6 -7 16 -3 22 5 8 11 8 17 2 6 -6 7
-16 3 -22z m1167 -122 l-22 -22 0 26 c0 28 18 42 35 27 6 -6 1 -18 -13 -31z
m-1165 -43 c3 -118 6 -115 -91 -115 -81 0 -84 1 -90 25 -11 42 10 108 44 138
27 24 38 28 83 25 l52 -3 2 -70z m263 -10 c0 -71 -3 -86 -18 -94 -15 -8 -74
-9 -149 -2 -9 1 -13 25 -13 85 0 58 4 86 13 89 6 3 47 6 90 6 l77 1 0 -85z
m260 -5 l0 -90 -37 0 c-21 0 -62 -3 -90 -6 l-53 -6 0 73 c0 122 -2 119 96 119
l84 0 0 -90z m270 23 c0 -115 1 -113 -96 -113 l-84 0 0 90 0 90 90 0 90 0 0
-67z m255 -10 c-4 -43 -10 -82 -15 -87 -13 -13 -67 -21 -116 -18 l-44 4 0 73
c0 107 -2 105 97 105 l85 0 -7 -77z m-1325 -93 c0 -5 -4 -10 -10 -10 -5 0 -10
5 -10 10 0 6 5 10 10 10 6 0 10 -4 10 -10z m268 -192 c2 -56 -1 -88 -8 -89 -5
-1 -17 -1 -25 -1 -8 0 -44 0 -80 1 l-65 1 0 84 c0 97 -7 91 105 91 l70 0 3
-87z m262 2 l0 -90 -90 0 -90 0 0 84 c0 58 4 86 13 89 6 3 47 6 90 6 l77 1 0
-90z m258 3 l-3 -88 -87 -3 -88 -3 0 84 c0 46 3 87 7 90 3 4 44 7 90 7 l84 0
-3 -87z m264 7 c-4 -92 -12 -100 -104 -100 l-68 0 0 83 c0 46 3 87 7 91 4 4
43 5 88 4 l80 -3 -3 -75z m127 54 c-13 -14 -25 -20 -27 -14 -7 20 7 40 29 40
l22 0 -24 -26z m-1177 -69 c-2 -44 -7 -84 -11 -88 -5 -4 -43 -7 -87 -5 l-79 3
-3 34 c-5 50 5 77 41 111 29 27 37 30 87 28 l55 -3 -3 -80z m-272 -85 c0 -5
-5 -10 -11 -10 -5 0 -7 5 -4 10 3 6 8 10 11 10 2 0 4 -4 4 -10z m-2 -182 l-3
-93 -87 -3 c-96 -3 -93 -6 -88 63 2 37 62 112 93 118 12 2 37 5 55 6 l33 1 -3
-92z m257 -3 l0 -90 -82 -3 c-94 -3 -90 -9 -85 104 l4 73 56 3 c117 7 107 15
107 -87z m263 86 c8 -1 12 -24 12 -81 0 -56 -4 -82 -12 -84 -7 -3 -48 -7 -90
-9 l-78 -5 0 88 0 89 63 3 c34 2 69 2 77 1 8 -1 21 -2 28 -2z m270 -78 l-3
-88 -87 -3 -88 -3 0 85 c0 58 4 86 13 89 6 3 47 6 90 6 l78 1 -3 -87z m262 2
c0 -60 -4 -87 -12 -90 -30 -10 -158 -13 -164 -4 -3 6 -3 49 1 95 l7 84 84 0
84 0 0 -85z m133 50 c-23 -29 -29 -32 -34 -17 -10 26 9 52 37 52 l25 0 -28
-35z m-1193 -330 c0 -98 0 -98 -110 -93 l-65 3 0 85 0 85 80 5 c44 3 83 4 88
2 4 -2 7 -41 7 -87z m265 83 c3 -7 1 -49 -3 -93 l-7 -80 -82 -3 -83 -3 0 89
c0 49 3 92 7 95 12 13 163 8 168 -5z m263 -80 l3 -88 -91 0 -90 0 0 83 c0 46
3 87 7 91 4 4 43 5 88 4 l80 -3 3 -87z m262 14 c0 -47 -5 -83 -12 -90 -7 -7
-43 -12 -90 -12 l-78 0 0 74 c0 108 -2 106 96 106 l84 0 0 -78z m128 38 c-33
-39 -33 -39 -36 -14 -5 40 5 54 38 54 l31 0 -33 -40z m-1182 -48 c-2 -43 -6
-83 -10 -90 -4 -8 -35 -12 -82 -12 -68 0 -75 2 -83 22 -11 30 -3 54 38 111 34
46 36 47 87 47 l51 0 -1 -78z m514 -271 l0 -89 -82 -4 c-46 -3 -85 -2 -88 1
-3 3 -4 43 -2 88 l3 82 47 3 c26 2 64 4 85 5 l37 3 0 -89z m265 -1 l0 -85 -87
-3 -88 -3 0 85 0 85 68 4 c117 6 107 14 107 -83z m157 70 c-13 -10 -32 -29
-42 -42 l-19 -23 -1 43 0 42 43 0 42 -1 -23 -19z m-1202 -12 c0 -13 -3 -53 -7
-90 l-6 -68 -83 0 -84 0 0 39 c0 28 8 49 31 77 43 55 57 64 106 64 38 0 43 -3
43 -22z m258 -65 l-3 -88 -85 0 -85 0 -3 88 -3 87 91 0 91 0 -3 -87z m260 0
l-3 -88 -87 -3 -88 -3 0 84 c0 46 3 87 7 90 3 4 44 7 90 7 l84 0 -3 -87z
m-798 -268 l0 -95 -85 0 c-95 0 -100 5 -71 74 24 58 73 104 114 109 20 2 38 4
40 5 1 1 2 -41 2 -93z m265 85 c4 -6 4 -49 0 -95 l-7 -85 -84 0 -84 0 0 89 0
90 43 3 c23 2 61 4 84 6 23 2 44 -2 48 -8z m260 -85 l0 -90 -87 -3 -88 -3 0
43 c0 24 3 67 7 96 l6 53 81 -3 81 -3 0 -90z m263 3 l-3 -93 -81 -3 c-45 -2
-85 1 -88 6 -3 5 -2 48 1 95 l6 87 84 0 84 0 -3 -92z m268 11 c1 -42 -1 -81
-5 -87 -3 -6 -35 -11 -71 -12 -110 -3 -100 -11 -100 83 0 46 3 87 7 91 4 4 43
5 88 4 l80 -3 1 -76z m174 78 c0 -2 -18 -22 -39 -45 -42 -44 -51 -41 -51 19 0
28 2 29 45 29 25 0 45 -2 45 -3z m-1233 -348 c1 -41 -2 -80 -5 -86 -4 -7 -36
-12 -72 -13 -121 -3 -111 -11 -104 78 3 42 7 83 9 89 3 9 28 12 87 10 l83 -2
2 -76z m258 -9 l0 -85 -87 -3 -88 -3 0 75 c0 109 -2 107 94 104 l81 -3 0 -85z
m263 3 l-3 -88 -87 -3 -88 -3 0 71 c0 105 5 110 101 110 l80 0 -3 -87z m264 7
c2 -45 -1 -85 -6 -91 -6 -5 -47 -9 -91 -9 l-82 0 4 78 c3 42 6 82 8 88 2 7 35
12 83 13 l80 2 4 -81z m168 72 c0 -4 -18 -27 -40 -51 l-40 -43 0 45 c0 39 3
46 23 50 39 8 57 7 57 -1z m-970 -353 l0 -86 -31 -7 c-35 -7 -86 12 -112 42
-21 23 -40 96 -32 121 4 13 20 16 90 16 l85 0 0 -86z m270 24 c0 -115 1 -113
-96 -113 l-84 0 0 71 c0 104 5 109 100 109 l80 0 0 -67z m258 -20 l-3 -88 -55
-3 c-30 -2 -70 -1 -87 3 -37 7 -39 18 -27 123 l7 52 84 0 84 0 -3 -87z m202
77 c0 -5 -4 -10 -8 -10 -5 0 -27 -16 -49 -35 -23 -19 -44 -35 -47 -35 -3 0 -6
20 -6 45 l0 45 55 0 c30 0 55 -4 55 -10z m-470 -279 c0 -10 -7 -22 -16 -25
-43 -17 -154 5 -154 29 0 12 17 15 85 15 77 0 85 -2 85 -19z m150 11 c0 -4
-13 -13 -30 -19 -30 -11 -47 -3 -35 17 7 12 65 14 65 2z"/>
<path d="M4294 9770 c0 -797 2 -1450 4 -1450 2 0 41 38 87 84 l85 84 0 1276 0
1276 1254 0 1253 0 77 80 c42 44 76 84 76 90 0 7 -469 10 -1419 10 l-1418 0 1
-1450z"/>
<path d="M9481 11129 l-85 -89 7471 0 7471 0 4 -162 c2 -90 1 -167 -3 -171 -4
-5 -3442 -10 -7639 -12 l-7633 -3 -84 -84 -83 -83 7722 -5 7723 -5 3 -3057 3
-3058 -9675 0 -9676 0 0 1078 -1 1077 -84 -87 -85 -87 0 -991 0 -990 -180 0
-180 0 0 800 c0 440 -4 800 -8 800 -5 0 -45 -38 -90 -84 -66 -67 -81 -89 -78
-107 3 -13 5 -376 5 -806 l1 -782 265 6 265 6 2 -264 3 -264 10103 -3 10102
-2 -2 3497 -3 3498 -257 3 -258 2 0 260 0 260 -7477 -1 -7478 -2 -84 -88z
m15389 -3929 l0 -3320 -9935 0 -9935 0 0 169 0 169 68 4 c45 3 19033 11 19440
8 10 0 12 628 12 3138 0 1725 0 3140 0 3145 0 4 79 7 175 7 l175 0 0 -3320z"/>
<path d="M4830 10696 c-3 -2 -4 -420 -2 -927 l2 -923 85 87 85 87 0 750 0 750
732 0 731 0 84 85 c45 47 83 87 83 88 0 4 -1796 8 -1800 3z"/>
<path d="M7920 8892 l0 -189 -82 -7 c-337 -27 -639 -144 -842 -324 -53 -47
-161 -174 -193 -227 -126 -210 -175 -394 -174 -655 0 -225 29 -348 127 -544
48 -95 145 -228 210 -286 157 -141 367 -254 579 -310 64 -16 301 -49 363 -50
9 0 12 -48 12 -205 l0 -205 215 0 215 0 0 204 0 204 78 7 c338 28 569 110 797
283 165 126 272 275 355 497 57 151 74 272 67 479 -6 185 -18 245 -77 391
-161 401 -499 646 -1000 725 -69 11 -144 20 -167 20 l-43 0 -2 158 c-1 86 -2
171 -3 187 l-1 30 -217 3 -217 2 0 -188z m-9 -1395 c-1 -463 -5 -842 -9 -842
-40 1 -143 20 -198 35 -79 23 -211 77 -235 97 -8 7 -19 13 -23 13 -5 0 -38 23
-74 52 -233 186 -330 471 -277 819 48 324 246 539 582 633 84 24 222 47 232
39 3 -2 4 -382 2 -846z m648 817 c141 -33 273 -92 349 -157 70 -59 138 -138
167 -194 10 -21 27 -49 36 -63 23 -36 58 -152 74 -250 41 -245 -15 -488 -155
-674 -124 -164 -376 -292 -612 -313 l-68 -6 0 840 c0 462 2 842 5 845 9 9 94
-3 204 -28z"/>
<path d="M11442 8979 c-308 -22 -605 -131 -818 -300 -89 -71 -230 -222 -286
-308 -113 -173 -191 -368 -231 -576 -41 -210 -46 -326 -22 -525 72 -607 388
-1032 922 -1243 134 -53 359 -93 544 -96 572 -10 1049 255 1310 729 39 70 104
227 129 310 35 115 48 191 61 359 23 287 -22 568 -130 805 -17 38 -31 72 -31
77 0 11 -94 163 -145 234 -119 166 -392 372 -571 430 -27 9 -58 20 -69 24 -60
24 -237 64 -335 76 -87 10 -216 12 -328 4z m349 -395 c96 -17 212 -55 285 -94
238 -128 433 -416 489 -721 32 -177 30 -523 -5 -644 -5 -16 -17 -61 -26 -99
-17 -68 -75 -194 -135 -291 -72 -118 -259 -275 -398 -334 -169 -72 -406 -99
-606 -71 -270 39 -502 184 -663 413 -57 82 -83 134 -116 237 -67 208 -71 236
-71 490 1 200 3 235 24 315 62 248 141 402 273 533 201 199 407 279 724 281
79 1 168 -5 225 -15z"/>
<path d="M13660 7458 l0 -1488 225 0 225 0 2 556 3 556 285 4 c400 6 463 10
586 38 488 112 756 470 731 971 -21 408 -242 678 -651 795 -168 48 -215 51
-830 54 l-576 2 0 -1488z m1170 1118 c269 -61 413 -234 427 -515 11 -229 -65
-401 -228 -511 -136 -93 -232 -110 -625 -110 l-294 0 0 581 0 581 323 -5 c252
-3 338 -8 397 -21z"/>
<path d="M16260 7461 l0 -1491 205 0 205 0 0 1137 c0 625 2 1138 5 1141 2 3 9
-6 14 -19 17 -46 61 -135 116 -234 30 -55 64 -120 77 -145 12 -25 32 -61 43
-80 12 -19 60 -106 106 -193 46 -87 89 -166 94 -175 17 -28 167 -299 205 -371
44 -81 211 -386 225 -409 6 -9 30 -51 54 -92 73 -124 114 -150 233 -150 107 1
174 39 211 120 4 8 18 33 32 55 14 22 38 67 54 100 15 33 51 100 80 149 28 49
51 90 51 92 0 2 41 79 91 171 51 92 107 197 127 233 19 36 45 84 58 106 13 23
67 122 120 220 53 99 115 213 137 254 22 41 75 143 116 226 l76 151 -3 -1143
-4 -1144 211 0 211 0 -2 1488 -3 1487 -205 0 c-200 0 -206 -1 -240 -24 -21
-14 -45 -45 -60 -75 -14 -28 -35 -67 -47 -87 -12 -20 -40 -70 -61 -110 -22
-41 -60 -110 -84 -154 -25 -44 -62 -114 -83 -155 -21 -41 -46 -86 -55 -100
-18 -27 -24 -38 -175 -315 -89 -164 -139 -254 -203 -369 -13 -22 -47 -86 -76
-141 -30 -55 -73 -136 -96 -180 -23 -44 -74 -140 -111 -213 l-69 -132 -30 62
c-16 35 -44 88 -61 118 -17 30 -48 87 -68 125 -21 39 -44 81 -53 95 -9 14 -36
63 -60 110 -25 47 -68 123 -95 170 -28 47 -69 121 -92 165 -23 44 -50 94 -60
110 -10 17 -39 71 -66 120 -26 50 -87 160 -135 245 -48 85 -125 225 -170 310
-137 256 -200 363 -231 395 l-29 30 -215 3 -215 3 0 -1490z"/>
<path d="M21025 8927 c-8 -13 -26 -52 -41 -88 -14 -35 -32 -80 -41 -99 -9 -19
-42 -100 -74 -180 -54 -137 -103 -257 -133 -325 -7 -16 -19 -46 -26 -65 -7
-19 -33 -82 -58 -140 -24 -58 -70 -174 -102 -258 -33 -83 -66 -164 -74 -180
-8 -15 -19 -40 -25 -57 -5 -16 -48 -124 -96 -240 -47 -115 -97 -239 -110 -275
-12 -36 -37 -99 -55 -140 -37 -89 -148 -359 -272 -665 -49 -121 -92 -226 -95
-232 -4 -10 40 -13 202 -13 175 0 211 3 235 17 42 25 58 58 155 318 38 104 43
118 68 175 16 37 91 233 101 263 5 16 46 17 681 17 606 0 675 -2 675 -16 0 -8
9 -36 19 -62 11 -26 39 -96 61 -157 23 -60 50 -128 59 -150 10 -22 28 -67 41
-100 49 -129 103 -245 124 -263 45 -41 62 -44 264 -43 108 1 197 3 199 5 2 1
-26 72 -61 157 -35 85 -91 222 -125 304 -34 83 -71 173 -82 200 -12 28 -29 70
-39 95 -10 25 -43 108 -74 185 -31 77 -63 154 -70 170 -23 47 -96 224 -96 231
0 7 -116 289 -136 328 -8 16 -14 33 -14 38 0 8 -84 214 -122 297 -11 24 -39
94 -63 155 -45 117 -110 277 -125 311 -5 11 -19 45 -31 75 -12 30 -30 74 -40
97 -11 24 -19 45 -19 48 0 2 -11 29 -25 59 -14 30 -25 58 -25 61 0 4 -6 21
-14 38 -8 18 -23 53 -35 80 l-20 47 -225 0 c-225 0 -226 0 -241 -23z m269
-514 c24 -76 141 -392 166 -448 5 -11 22 -56 38 -100 44 -119 179 -468 219
-565 53 -129 73 -183 73 -197 0 -10 -111 -13 -536 -13 -507 0 -536 1 -529 18
4 9 20 53 36 96 16 43 33 84 38 90 4 6 16 36 26 66 10 30 21 60 25 65 4 6 19
44 33 85 22 66 59 162 86 225 5 11 19 47 31 80 12 33 46 121 75 195 71 179
101 260 110 290 7 24 18 52 51 128 8 18 14 42 14 52 0 42 17 16 44 -67z"/>
</g>
</svg>
