<svg xmlns="http://www.w3.org/2000/svg" fill="none" viewBox="219 123 1207.56 417.13"><path fill="#6a9a1d" d="M408.067 125.673c-3.611 2.14-10.968 11.904-14.847 19.528-3.076 5.885-5.751 22.604-5.751 35.579 0 15.783 3.477 32.368 9.363 44.674l3.878 8.025-.936-6.019c-1.471-9.764-.936-37.451.936-46.012 2.408-11.235 6.956-19.126 16.854-30.228 8.025-8.962 8.694-10.165 8.694-15.917 0-11.102-8.427-15.649-18.191-9.63M268.025 152.29c-.535 2.274-.535 7.357-.134 11.235 3.879 39.993 30.63 69.152 70.088 76.776 10.567 2.006 28.089 2.541 28.089.802-.268-4.681-26.885-31.833-57.515-58.317-6.688-5.751-2.809-5.751 8.293 0 22.872 11.904 36.916 23.675 50.827 42.534 12.84 17.255 12.171 16.586 13.108 12.841.401-1.739.267-7.491-.268-12.707-1.739-17.522-16.853-41.598-33.974-54.305-18.324-13.509-39.591-20.999-62.864-22.203l-14.847-.802zM499.826 149.882c-13.643 2.14-33.706 10.567-47.617 20.197-14.98 10.166-30.228 33.573-35.445 53.77-4.414 17.522-1.204 22.069 6.822 9.898 13.776-20.866 33.438-38.789 53.1-48.42 13.911-6.821 16.452-7.624 15.516-5.35-.401 1.07-1.07 2.006-1.739 2.006-.535 0-5.35 3.879-10.834 8.561-23.407 20.063-49.356 48.419-47.215 51.763 1.872 3.076 29.693-1.204 43.069-6.688 32.903-13.509 51.897-40.394 52.833-74.234l.267-12.171-10.7-.134c-5.885-.134-14.044.267-18.057.802"/><path fill="#e9245a" d="M280.467 248.326c-18.325 2.675-29.159 7.624-40.261 18.191-9.496 8.961-14.713 16.987-18.591 28.356-2.542 7.757-2.943 11.101-2.408 22.604.936 19.261 5.216 28.624 19.929 44.273l6.153 6.554-1.739 5.618c-9.764 32.502 6.688 63.667 39.592 75.705 8.025 2.943 8.025 2.943 8.025 8.427.134 2.942 1.07 7.891 2.14 10.834s2.541 7.089 3.21 9.229c5.083 16.05 25.949 31.566 47.884 35.712 5.886 1.07 8.026 2.408 13.108 7.892 7.491 8.025 18.592 13.777 32.235 16.853 8.561 1.873 11.503 2.006 19.529.669 12.573-2.14 24.611-8.026 33.973-16.72 6.421-5.885 8.828-7.222 14.178-7.891 9.497-1.338 25.28-9.095 33.172-16.586 11.77-10.968 18.458-23.942 20.197-39.591.401-3.344 1.471-4.28 9.897-7.49 32.369-12.573 49.222-47.082 38.522-78.648l-2.007-6.019 5.752-6.153c7.758-8.426 10.968-13.91 14.312-24.878 4.414-14.312 3.344-31.834-2.943-44.942-3.344-7.223-11.637-18.458-16.318-22.203-2.675-2.14-6.42-5.217-8.427-6.688-5.885-4.681-16.451-9.497-24.343-11.102-13.509-2.808-33.171-1.605-42.133 2.408-1.471.802-5.082 2.408-8.025 3.611-5.484 2.408-12.305 6.956-17.923 12.038l-3.077 2.943-8.827-6.688c-11.503-8.56-18.325-11.369-32.904-13.91-10.032-1.739-14.178-1.873-25.28-.535-7.356.802-14.311 2.006-15.515 2.675-1.204.535-5.484 2.541-9.631 4.547-4.28 1.873-10.433 5.618-13.776 8.159l-6.287 4.816-7.891-6.153c-16.051-12.306-36.382-18.325-53.502-15.917m26.349 29.426c9.764 7.49 12.44 18.191 7.089 28.757-4.815 9.229-16.451 13.777-27.687 10.701-10.567-2.809-16.853-15.248-13.91-26.885 2.942-10.834 10.031-16.051 22.069-16.051 6.42 0 8.694.669 12.439 3.478m76.909 47.751c6.822 3.076 12.44 8.694 14.981 14.846l2.274 5.351 2.675-5.351c6.42-11.904 17.121-18.324 31.299-18.19 14.98 0 26.483 5.751 33.973 17.12 10.299 15.65 9.363 36.917-2.675 54.706-5.618 8.293-18.324 21-32.904 32.77-3.21 2.675-19.26 12.038-20.464 12.038-.803 0-1.338.401-1.338.936 0 1.605-6.821 4.414-10.7 4.414-3.745 0-26.483-13.375-35.445-20.732-17.388-14.579-27.286-25.948-34.107-39.324-4.147-8.293-4.281-9.095-3.746-21.401.535-11.77.937-13.509 5.217-20.464 4.547-7.624 12.305-14.847 18.592-17.388 8.828-3.745 23.139-3.344 32.368.669"/><path fill="#731331" d="M665.011 287.516c-4.414.669-5.351 1.338-5.618 4.147-.268 1.872-1.605 22.604-3.077 46.145-2.808 46.68-3.611 67.011-2.407 68.215.802.936 25.012 1.204 25.948.267.535-.535 3.077-54.438 3.21-67.546 0-2.274.402-4.28 1.07-4.28 1.071 0 6.822 9.898 18.86 31.968 6.286 11.77 8.159 14.178 11.503 15.114 4.949 1.337 16.184.134 17.789-2.007.803-.936 6.554-11.369 12.974-23.407 6.421-11.904 12.038-21.668 12.707-21.668.535 0 1.471 10.7 2.006 23.675.535 13.108 1.338 29.158 1.739 35.846l.937 12.038 13.108.401 12.974.401v-5.751c0-3.21-.669-17.789-1.338-32.502-2.541-53.101-4.28-77.578-5.751-79.317-2.408-2.943-19.93-1.605-24.477 1.739-2.007 1.605-10.299 14.713-19.261 30.763-8.56 15.516-16.184 27.955-16.853 27.821-.669 0-7.49-11.503-15.248-25.413s-15.115-26.885-16.452-28.891c-4.146-6.42-13.643-9.497-24.343-7.758M846.517 289.924c-1.471 1.337-4.815 8.426-7.356 15.783-4.816 13.375-13.51 37.317-27.286 74.903-10.433 28.356-10.835 25.547 2.942 26.483 15.382 1.07 16.853.401 19.93-9.229 1.337-4.414 3.344-9.497 4.28-11.637l2.006-3.611h45.209l1.873 3.611c1.07 2.14 2.942 7.089 4.28 11.102s2.809 7.758 3.21 8.426c1.07 1.204 26.617 1.605 27.821.402.401-.402-2.006-8.427-5.35-17.79-5.752-16.318-27.152-74.769-33.573-92.023l-2.942-8.025-16.184-.402c-13.777-.267-16.452 0-18.86 2.007m25.681 46.948c4.146 12.038 7.49 22.471 7.49 23.139 0 .669-7.089 1.204-16.05 1.204-8.828 0-16.051-.401-16.051-1.07 0-2.943 15.382-46.948 16.051-46.145.535.668 4.414 10.834 8.56 22.872M952.317 288.72c-.937.669-1.739 12.172-2.408 37.05-1.338 52.833-2.006 55.91-14.044 57.916l-6.019 1.07v22.605l9.496-.268c10.701-.267 16.452-2.274 23.006-7.758 11.503-9.63 13.643-18.057 14.579-57.916l.803-29.693h15.114c8.426 0 15.386.134 15.516.267.13.268.53 21.401.94 47.216l.8 46.814h26.75l.4-57.381c.13-41.196-.13-57.916-1.2-59.119-1.21-1.472-9.37-1.873-41.868-1.873-22.07 0-40.929.535-41.865 1.07M1061.06 289.656c-1.07 2.809-1.07 112.087 0 114.896.67 1.738 3.21 2.14 13.91 2.14 15.92 0 12.04 3.745 41.2-39.859 11.63-17.388 21.66-31.834 22.2-31.968.53-.267 1.07 15.65 1.2 35.445l.27 35.713 11.77.669c6.55.401 12.71.133 13.78-.402 1.6-.936 1.87-10.299 1.87-58.985 0-51.63-.27-58.184-2.14-58.853-1.2-.401-6.69-.802-12.17-.802-10.03 0-10.3 0-14.98 5.083-2.68 2.808-14.72 20.063-26.89 38.253l-22.07 33.038-.67-37.853-.66-37.852-12.84-.402c-10.84-.267-13.11 0-13.78 1.739M1192.01 288.987c-1.07 1.739-2.14 100.45-1.07 109.947l.8 7.758h13.11c9.63 0 13.24-.402 13.37-1.739 0-.803.14-11.503.27-23.675l.27-22.069 23-.402 23.14-.267.27 23.675.4 23.808 12.57.401c9.23.268 12.98-.134 13.78-1.337.54-.937 1.07-27.153 1.07-58.05 0-46.68-.27-56.712-1.87-57.916-1.21-1.07-6.15-1.471-13.78-1.204l-11.77.402-.67 23.407-.67 23.407-21.26.401c-14.98.268-21.81-.134-23.14-1.204-1.47-1.337-1.88-5.751-1.61-22.604.14-11.637-.13-21.802-.67-22.605-1.2-1.872-24.34-2.006-25.54-.134M1350.1 289.255c-1.2.936-6.42 13.509-11.63 27.821-25.42 69.82-32.1 88.679-31.57 89.214.54.669 15.38.937 23.67.669 4.82-.267 4.82-.267 8.57-11.369 2-6.019 4.41-11.369 5.21-11.904s11.5-1.07 23.81-1.07h22.2l2.14 5.618c1.07 3.21 2.95 8.426 4.02 11.77l1.87 6.019 14.31.401c14.31.402 14.31.402 13.64-2.675s-13.91-39.591-30.36-83.998c-2.27-6.286-5.48-14.98-6.95-19.394-4.28-12.573-4.42-12.707-21.81-12.707-9.76 0-15.65.535-17.12 1.605m32.24 71.425c-.8.803-30.63.936-31.3.134-.67-.535 10.7-35.846 14.18-44.407 1.6-3.879 2-3.21 9.63 19.796 4.41 13.108 7.76 24.076 7.49 24.477M668.621 480.391c-8.293 2.006-16.184 10.165-16.585 16.853-.402 13.241 2.541 19.795 10.834 23.808 10.433 4.949 29.56 3.611 29.56-2.14 0-2.408-.535-2.541-4.949-1.605-8.561 1.873-17.656 1.07-21.535-1.873-8.961-6.554-8.293-22.738 1.07-27.553 3.745-2.006 6.688-2.274 15.115-1.739 8.025.535 10.299.268 10.299-1.07 0-.936-.803-2.408-1.605-3.21-2.676-2.14-15.783-2.943-22.204-1.471M1200.7 480.123c-12.44 2.541-19.53 12.172-18.46 24.344.81 7.891 4.02 12.706 10.7 16.184 10.03 5.216 29.16 4.146 29.16-1.605 0-3.077 0-3.077-7.62-1.338-8.16 1.873-16.19-.134-20.73-5.35-2.95-3.21-3.75-5.35-3.75-10.567 0-12.038 7.89-17.254 23.54-15.649 6.82.669 8.56.535 8.56-.936 0-1.07-.8-2.542-1.74-3.344-2.27-2.006-13.91-2.943-19.66-1.739M1255 480.391c-7.75 1.872-13.64 6.955-16.31 14.044-6.16 16.184 7.75 31.566 26.75 29.56 13.64-1.338 19.93-6.554 22.07-17.656 2-10.834-1.74-19.528-10.57-24.076-4.68-2.407-15.78-3.344-21.94-1.872m18.86 7.891c8.43 5.083 8.96 20.331.94 26.617-7.22 5.618-20.6 4.682-25.82-2.006-6.15-7.758-4.01-21.668 3.88-25.547 5.22-2.675 16.05-2.14 21 .936M704.469 482.932c0 2.14 1.07 2.541 8.426 2.943l8.293.401.669 18.726c.669 18.19.802 18.725 3.745 19.126 2.943.402 2.943.268 2.943-16.853 0-9.63.401-18.324.802-19.528.669-1.605 2.809-2.14 9.363-2.14 7.624 0 8.56-.267 8.56-2.675 0-2.541-.936-2.675-21.4-2.675-20.331 0-21.401.134-21.401 2.675M757.973 481.193c0 .669 4.146 8.025 9.362 16.452 8.16 13.643 8.962 15.649 7.491 18.057-1.204 1.739-3.612 2.809-6.688 3.076-6.554.535-6.286 4.682.268 5.35 8.159.803 11.235-2.675 23.674-25.814 3.478-6.688 7.357-13.376 8.427-15.115 1.872-2.808 1.739-2.942-2.14-2.942-3.746 0-4.548.936-10.968 12.84-3.745 7.089-7.089 12.573-7.223 12.306-.268-.134-2.006-3.077-3.745-6.42-10.834-19.127-10.433-18.726-14.579-18.726-2.141 0-3.879.401-3.879.936M820.302 493.9c-1.204 16.853-2.675 22.203-6.955 23.808-2.943 1.204-3.21 2.007-3.21 10.032 0 8.426.133 8.828 2.942 8.426 2.408-.267 3.077-1.471 3.478-5.751.267-2.943.669-5.484.936-5.751.134-.134 8.026-.402 17.522-.402l17.254-.134.669 5.752c.535 4.815 1.204 6.019 3.745 6.286 3.077.535 3.077.803 3.344-14.445.134-2.408-.668-3.478-2.809-3.745-2.808-.401-2.942-.937-2.942-19.127v-18.592h-33.038zm25.949 7.758v16.05h-12.038c-6.554 0-12.038-.267-12.038-.401 0-.268 1.07-2.541 2.273-5.083 1.472-2.809 2.542-8.56 2.809-15.649l.535-10.968h18.459zM877.95 481.059c-.535.535-.936 10.166-.936 21.535v20.464h3.879c3.343 0 5.617-2.14 16.318-15.381 6.821-8.427 12.706-14.981 13.108-14.58.936.803.936 1.873 1.203 18.325.268 12.84.402 13.108 3.344 12.706 2.943-.401 2.943-.802 3.344-22.203l.268-21.668h-3.612c-2.809.134-5.082 1.739-8.961 6.42-2.809 3.478-8.427 10.433-12.707 15.382l-7.49 9.095-.669-15.114c-.669-13.911-.936-15.114-3.344-15.516-1.605-.267-3.21 0-3.745.535M942.954 482.397c-8.426 4.146-8.694 15.649-.401 20.331 2.14 1.203 4.013 2.809 4.013 3.344s-2.408 4.28-5.351 8.292c-2.942 4.013-5.35 7.624-5.35 8.026 0 .401 1.605.668 3.745.668 2.809-.133 4.816-1.738 9.497-7.891 5.083-6.955 6.42-8.025 11.102-8.427 2.808-.267 5.484-.267 5.885.134.267.268.535 4.013.535 8.293 0 8.025 1.07 9.898 5.083 8.694 2.14-.669 2.407-3.076 2.675-22.203l.401-21.401h-13.777c-9.764 0-14.98.669-18.057 2.14m23.407 10.968.402 7.089-9.764-.401c-8.962-.402-9.765-.669-11.771-4.013-3.745-6.822 1.338-10.433 14.044-10.032l6.688.268zM1018.79 501.658v21.4h3.35c3.21 0 3.34-.401 3.34-8.426 0-14.446 3.08-14.579 15.78-1.204 6.56 6.822 10.17 9.63 13.38 10.165 2.27.402 4.28.268 4.28-.267s-4.28-5.484-9.36-11.235c-5.22-5.618-9.37-10.701-9.37-11.37 0-.535 3.88-5.082 8.7-10.031 4.81-5.083 8.69-9.363 8.69-9.764 0-.402-1.74-.669-3.88-.669-2.94 0-5.75 2.006-12.7 9.363-12.18 12.974-15.52 12.573-15.52-2.14 0-6.822-.13-7.223-3.34-7.223h-3.35zM1074.97 501.524c0 20.197.13 21.401 2.68 22.203 4.28 1.338 5.35-.401 5.35-8.159v-7.223h7.75c15.25 0 23.01-4.815 23.01-14.311 0-10.834-5.35-13.777-24.75-13.777h-14.04zm29.56-12.038c3.21 3.879 3.21 5.751.13 9.497-2 2.407-4.14 3.076-12.03 3.745l-9.63.668v-8.025c0-4.414.4-8.426 1.07-8.961.53-.535 4.81-.803 9.49-.535 6.96.401 8.96 1.07 10.97 3.611M1139.17 487.212c-1.74 3.879-6.29 13.509-10.03 21.401-3.88 8.025-6.55 14.445-6.15 14.445s2.14.402 3.74.803c2.54.669 3.35 0 5.22-4.681l2.14-5.484h24.61l1.74 4.681c1.34 4.013 2.27 4.681 5.75 4.681 2.67 0 3.75-.535 3.34-1.738-.4-.803-4.68-10.433-9.76-21.401-8.83-19.127-9.23-19.662-13.24-19.662-3.61 0-4.42.802-7.36 6.955m12.17 10.701c2.01 4.547 3.35 8.827 3.08 9.362-.67 1.07-15.11.268-16.18-.802-.27-.268 1.33-4.548 3.61-9.497 2.27-4.949 4.41-8.694 4.95-8.159.53.401 2.54 4.548 4.54 9.096M1300.35 481.594c-1.74 2.809 1.07 4.013 8.83 4.013h7.89v18.726c0 17.789.13 18.725 2.67 18.725 1.47 0 3.08.134 3.75.268.53.267 1.2-8.025 1.6-18.324l.67-18.726 8.43-.401c7.22-.402 8.29-.803 8.29-2.943 0-2.541-1.07-2.675-20.6-2.675-12.44 0-21 .535-21.53 1.337M1357.19 501.658v21.4h13.38c15.24 0 20.06-1.605 22.6-7.757 2.14-5.083.4-12.038-3.88-15.248-2.14-1.472-7.22-2.676-14.04-3.344l-10.7-1.07-.4-7.758c-.4-7.089-.67-7.624-3.61-7.624h-3.35zm24.08 1.738c4.81 2.408 6.55 8.159 3.34 11.637-2.14 2.408-3.88 2.675-11.23 2.408l-8.83-.402-.4-4.547c-.27-2.542-.14-5.885.26-7.624.81-2.809 1.61-3.21 7.23-3.21 3.47 0 7.75.802 9.63 1.738M1406.95 501.925c.4 20.732.53 21.802 3.08 21.802 2.54 0 2.67-1.07 3.34-19.528.4-10.834.53-20.598.27-21.802-.27-1.204-1.74-2.14-3.75-2.14h-3.21z"/></svg>